<mxfile host="app.diagrams.net" agent="Mozilla/5.0 (Macintosh; Intel Mac OS X 10_15_7) AppleWebKit/605.1.15 (KHTML, like Gecko) Version/18.6 Safari/605.1.15" version="28.1.1">
  <diagram name="Pagina-1" id="c-uwUkHPffSPwhgFVyYJ">
    <mxGraphModel dx="1144" dy="815" grid="1" gridSize="10" guides="1" tooltips="1" connect="1" arrows="1" fold="1" page="1" pageScale="1" pageWidth="827" pageHeight="1169" math="0" shadow="0">
      <root>
        <mxCell id="0" />
        <mxCell id="1" parent="0" />
        <mxCell id="jGFvi2a09jElZurBwW-i-32" value="Courier System" style="rounded=1;whiteSpace=wrap;html=1;verticalAlign=top;" parent="1" vertex="1">
          <mxGeometry x="230" y="240" width="380" height="290" as="geometry" />
        </mxCell>
        <mxCell id="jGFvi2a09jElZurBwW-i-17" style="edgeStyle=orthogonalEdgeStyle;rounded=0;orthogonalLoop=1;jettySize=auto;html=1;" parent="1" source="jGFvi2a09jElZurBwW-i-1" target="jGFvi2a09jElZurBwW-i-16" edge="1">
          <mxGeometry relative="1" as="geometry" />
        </mxCell>
        <mxCell id="O5LIGbgBDKq7RoHMJCz_-5" style="edgeStyle=orthogonalEdgeStyle;rounded=0;orthogonalLoop=1;jettySize=auto;html=1;exitX=0.5;exitY=0.5;exitDx=0;exitDy=0;exitPerimeter=0;entryX=0;entryY=0.5;entryDx=0;entryDy=0;" edge="1" parent="1" source="jGFvi2a09jElZurBwW-i-1" target="jGFvi2a09jElZurBwW-i-25">
          <mxGeometry relative="1" as="geometry" />
        </mxCell>
        <mxCell id="jGFvi2a09jElZurBwW-i-1" value="External actor (ACMEAT)" style="shape=umlActor;verticalLabelPosition=bottom;verticalAlign=top;html=1;" parent="1" vertex="1">
          <mxGeometry x="140" y="290" width="30" height="60" as="geometry" />
        </mxCell>
        <mxCell id="jGFvi2a09jElZurBwW-i-16" value="Check&amp;nbsp;&lt;div&gt;Availability&lt;/div&gt;" style="ellipse;whiteSpace=wrap;html=1;" parent="1" vertex="1">
          <mxGeometry x="300" y="297.5" width="100" height="45" as="geometry" />
        </mxCell>
        <mxCell id="O5LIGbgBDKq7RoHMJCz_-4" style="edgeStyle=orthogonalEdgeStyle;rounded=0;orthogonalLoop=1;jettySize=auto;html=1;entryX=1;entryY=0.5;entryDx=0;entryDy=0;" edge="1" parent="1" source="jGFvi2a09jElZurBwW-i-23" target="jGFvi2a09jElZurBwW-i-30">
          <mxGeometry relative="1" as="geometry" />
        </mxCell>
        <mxCell id="jGFvi2a09jElZurBwW-i-23" value="Rider" style="shape=umlActor;verticalLabelPosition=bottom;verticalAlign=top;html=1;" parent="1" vertex="1">
          <mxGeometry x="650" y="290" width="30" height="60" as="geometry" />
        </mxCell>
        <mxCell id="jGFvi2a09jElZurBwW-i-25" value="Save Order" style="ellipse;whiteSpace=wrap;html=1;" parent="1" vertex="1">
          <mxGeometry x="300" y="360" width="100" height="45" as="geometry" />
        </mxCell>
        <mxCell id="jGFvi2a09jElZurBwW-i-30" value="Ride Order" style="ellipse;whiteSpace=wrap;html=1;" parent="1" vertex="1">
          <mxGeometry x="460" y="297.5" width="100" height="45" as="geometry" />
        </mxCell>
        <mxCell id="O5LIGbgBDKq7RoHMJCz_-1" value="Delete Order" style="ellipse;whiteSpace=wrap;html=1;" vertex="1" parent="1">
          <mxGeometry x="300" y="450" width="100" height="45" as="geometry" />
        </mxCell>
        <mxCell id="O5LIGbgBDKq7RoHMJCz_-2" value="Order&amp;nbsp;&lt;div&gt;completed&lt;/div&gt;" style="ellipse;whiteSpace=wrap;html=1;" vertex="1" parent="1">
          <mxGeometry x="460" y="390" width="100" height="45" as="geometry" />
        </mxCell>
        <mxCell id="O5LIGbgBDKq7RoHMJCz_-7" value="&amp;lt;&amp;lt;include&amp;gt;&amp;gt;" style="html=1;verticalAlign=bottom;labelBackgroundColor=none;endArrow=open;endFill=0;dashed=1;rounded=0;entryX=0.5;entryY=0;entryDx=0;entryDy=0;exitX=0.5;exitY=1;exitDx=0;exitDy=0;" edge="1" parent="1" source="jGFvi2a09jElZurBwW-i-30" target="O5LIGbgBDKq7RoHMJCz_-2">
          <mxGeometry x="0.1579" width="160" relative="1" as="geometry">
            <mxPoint x="330" y="420" as="sourcePoint" />
            <mxPoint x="490" y="420" as="targetPoint" />
            <mxPoint as="offset" />
          </mxGeometry>
        </mxCell>
        <mxCell id="O5LIGbgBDKq7RoHMJCz_-8" value="&amp;lt;&amp;lt;extend&amp;gt;&amp;gt;" style="html=1;verticalAlign=bottom;labelBackgroundColor=none;endArrow=open;endFill=0;dashed=1;rounded=0;exitX=0.5;exitY=0;exitDx=0;exitDy=0;entryX=0.5;entryY=1;entryDx=0;entryDy=0;" edge="1" parent="1" source="O5LIGbgBDKq7RoHMJCz_-1" target="jGFvi2a09jElZurBwW-i-25">
          <mxGeometry x="-0.5556" width="160" relative="1" as="geometry">
            <mxPoint x="330" y="420" as="sourcePoint" />
            <mxPoint x="490" y="420" as="targetPoint" />
            <mxPoint as="offset" />
          </mxGeometry>
        </mxCell>
      </root>
    </mxGraphModel>
  </diagram>
</mxfile>
